<svg width="452" height="180" viewBox="0 0 452 180" fill="none" xmlns="http://www.w3.org/2000/svg">
<path fill-rule="evenodd" clip-rule="evenodd" d="M15 0C6.71573 0 0 6.71573 0 15C0 23.2843 6.71573 30 15 30H15.5161C23.8004 30 30.5161 23.2843 30.5161 15C30.5161 6.71573 23.8004 0 15.5161 0H15ZM67.1298 0C58.8456 0 52.1298 6.71573 52.1298 15C52.1298 23.2843 58.8456 30 67.1298 30H68.1621C76.4464 30 83.1621 23.2843 83.1621 15C83.1621 6.71573 76.4464 0 68.1621 0H67.1298ZM119.776 0C111.492 0 104.776 6.71573 104.776 15C104.776 23.2843 111.492 30 119.776 30H120.808C129.092 30 135.808 23.2843 135.808 15C135.808 6.71573 129.092 0 120.808 0H119.776ZM172.422 0C164.137 0 157.422 6.71573 157.422 15C157.422 23.2843 164.137 30 172.422 30H173.454C181.738 30 188.454 23.2843 188.454 15C188.454 6.71573 181.738 0 173.454 0H172.422ZM225.068 0C216.783 0 210.068 6.71573 210.068 15C210.068 23.2843 216.783 30 225.068 30H226.1C234.384 30 241.1 23.2843 241.1 15C241.1 6.71573 234.384 0 226.1 0H225.068ZM277.714 0C269.429 0 262.714 6.71573 262.714 15C262.714 23.2843 269.429 30 277.714 30H278.746C287.03 30 293.746 23.2843 293.746 15C293.746 6.71573 287.03 0 278.746 0H277.714ZM330.36 0C322.075 0 315.36 6.71573 315.36 15C315.36 23.2843 322.075 30 330.36 30H331.392C339.676 30 346.392 23.2843 346.392 15C346.392 6.71573 339.676 0 331.392 0H330.36ZM383.006 0C374.721 0 368.006 6.71573 368.006 15C368.006 23.2843 374.721 30 383.006 30H384.038C392.322 30 399.038 23.2843 399.038 15C399.038 6.71573 392.322 0 384.038 0H383.006ZM435.652 0C427.367 0 420.652 6.71573 420.652 15C420.652 23.2843 427.367 30 435.652 30H436.684C444.968 30 451.684 23.2843 451.684 15C451.684 6.71573 444.968 0 436.684 0H435.652ZM488.298 0C480.013 0 473.298 6.71573 473.298 15C473.298 23.2843 480.013 30 488.298 30H489.33C497.614 30 504.33 23.2843 504.33 15C504.33 6.71573 497.614 0 489.33 0H488.298ZM540.944 0C532.659 0 525.944 6.71573 525.944 15C525.944 23.2843 532.659 30 540.944 30H541.976C550.26 30 556.976 23.2843 556.976 15C556.976 6.71573 550.26 0 541.976 0H540.944ZM593.59 0C585.305 0 578.59 6.71573 578.59 15C578.59 23.2843 585.305 30 593.59 30H594.106C602.39 30 609.106 23.2843 609.106 15C609.106 6.71573 602.39 0 594.106 0H593.59ZM0 65C0 56.7157 6.71573 50 15 50H15.5161C23.8004 50 30.5161 56.7157 30.5161 65C30.5161 73.2843 23.8004 80 15.5161 80H15C6.71573 80 0 73.2843 0 65ZM52.1298 65C52.1298 56.7157 58.8456 50 67.1298 50H68.1621C76.4464 50 83.1621 56.7157 83.1621 65C83.1621 73.2843 76.4464 80 68.1621 80H67.1298C58.8456 80 52.1298 73.2843 52.1298 65ZM104.776 65C104.776 56.7157 111.492 50 119.776 50H120.808C129.092 50 135.808 56.7157 135.808 65C135.808 73.2843 129.092 80 120.808 80H119.776C111.492 80 104.776 73.2843 104.776 65ZM157.422 65C157.422 56.7157 164.137 50 172.422 50H173.454C181.738 50 188.454 56.7157 188.454 65C188.454 73.2843 181.738 80 173.454 80H172.422C164.137 80 157.422 73.2843 157.422 65ZM210.068 65C210.068 56.7157 216.783 50 225.068 50H226.1C234.384 50 241.1 56.7157 241.1 65C241.1 73.2843 234.384 80 226.1 80H225.068C216.783 80 210.068 73.2843 210.068 65ZM262.714 65C262.714 56.7157 269.429 50 277.714 50H278.746C287.03 50 293.746 56.7157 293.746 65C293.746 73.2843 287.03 80 278.746 80H277.714C269.429 80 262.714 73.2843 262.714 65ZM315.36 65C315.36 56.7157 322.075 50 330.36 50H331.392C339.676 50 346.392 56.7157 346.392 65C346.392 73.2843 339.676 80 331.392 80H330.36C322.075 80 315.36 73.2843 315.36 65ZM368.006 65C368.006 56.7157 374.721 50 383.006 50H384.038C392.322 50 399.038 56.7157 399.038 65C399.038 73.2843 392.322 80 384.038 80H383.006C374.721 80 368.006 73.2843 368.006 65ZM420.652 65C420.652 56.7157 427.367 50 435.652 50H436.684C444.968 50 451.684 56.7157 451.684 65C451.684 73.2843 444.968 80 436.684 80H435.652C427.367 80 420.652 73.2843 420.652 65ZM473.298 65C473.298 56.7157 480.013 50 488.298 50H489.33C497.614 50 504.33 56.7157 504.33 65C504.33 73.2843 497.614 80 489.33 80H488.298C480.013 80 473.298 73.2843 473.298 65ZM525.944 65C525.944 56.7157 532.659 50 540.944 50H541.976C550.26 50 556.976 56.7157 556.976 65C556.976 73.2843 550.26 80 541.976 80H540.944C532.659 80 525.944 73.2843 525.944 65ZM578.59 65C578.59 56.7157 585.305 50 593.59 50H594.106C602.39 50 609.106 56.7157 609.106 65C609.106 73.2843 602.39 80 594.106 80H593.59C585.305 80 578.59 73.2843 578.59 65ZM15 100C6.71573 100 0 106.716 0 115C0 123.284 6.71573 130 15 130H15.5161C23.8004 130 30.5161 123.284 30.5161 115C30.5161 106.716 23.8004 100 15.5161 100H15ZM67.1298 100C58.8456 100 52.1298 106.716 52.1298 115C52.1298 123.284 58.8456 130 67.1298 130H68.1621C76.4464 130 83.1621 123.284 83.1621 115C83.1621 106.716 76.4464 100 68.1621 100H67.1298ZM119.776 100C111.492 100 104.776 106.716 104.776 115C104.776 123.284 111.492 130 119.776 130H120.808C129.092 130 135.808 123.284 135.808 115C135.808 106.716 129.092 100 120.808 100H119.776ZM172.422 100C164.137 100 157.422 106.716 157.422 115C157.422 123.284 164.137 130 172.422 130H173.454C181.738 130 188.454 123.284 188.454 115C188.454 106.716 181.738 100 173.454 100H172.422ZM225.068 100C216.783 100 210.068 106.716 210.068 115C210.068 123.284 216.783 130 225.068 130H226.1C234.384 130 241.1 123.284 241.1 115C241.1 106.716 234.384 100 226.1 100H225.068ZM277.714 100C269.429 100 262.714 106.716 262.714 115C262.714 123.284 269.429 130 277.714 130H278.746C287.03 130 293.746 123.284 293.746 115C293.746 106.716 287.03 100 278.746 100H277.714ZM330.36 100C322.075 100 315.36 106.716 315.36 115C315.36 123.284 322.075 130 330.36 130H331.392C339.676 130 346.392 123.284 346.392 115C346.392 106.716 339.676 100 331.392 100H330.36ZM383.006 100C374.721 100 368.006 106.716 368.006 115C368.006 123.284 374.721 130 383.006 130H384.038C392.322 130 399.038 123.284 399.038 115C399.038 106.716 392.322 100 384.038 100H383.006ZM435.652 100C427.367 100 420.652 106.716 420.652 115C420.652 123.284 427.367 130 435.652 130H436.684C444.968 130 451.684 123.284 451.684 115C451.684 106.716 444.968 100 436.684 100H435.652ZM488.298 100C480.013 100 473.298 106.716 473.298 115C473.298 123.284 480.013 130 488.298 130H489.33C497.614 130 504.33 123.284 504.33 115C504.33 106.716 497.614 100 489.33 100H488.298ZM540.944 100C532.659 100 525.944 106.716 525.944 115C525.944 123.284 532.659 130 540.944 130H541.976C550.26 130 556.976 123.284 556.976 115C556.976 106.716 550.26 100 541.976 100H540.944ZM593.59 100C585.305 100 578.59 106.716 578.59 115C578.59 123.284 585.305 130 593.59 130H594.106C602.39 130 609.106 123.284 609.106 115C609.106 106.716 602.39 100 594.106 100H593.59ZM15 150C6.71573 150 0 156.716 0 165C0 173.284 6.71573 180 15 180H15.5161C23.8004 180 30.5161 173.284 30.5161 165C30.5161 156.716 23.8004 150 15.5161 150H15ZM67.1298 150C58.8456 150 52.1298 156.716 52.1298 165C52.1298 173.284 58.8456 180 67.1298 180H68.1621C76.4464 180 83.1621 173.284 83.1621 165C83.1621 156.716 76.4464 150 68.1621 150H67.1298ZM119.776 150C111.492 150 104.776 156.716 104.776 165C104.776 173.284 111.492 180 119.776 180H120.808C129.092 180 135.808 173.284 135.808 165C135.808 156.716 129.092 150 120.808 150H119.776ZM172.422 150C164.137 150 157.422 156.716 157.422 165C157.422 173.284 164.137 180 172.422 180H173.454C181.738 180 188.454 173.284 188.454 165C188.454 156.716 181.738 150 173.454 150H172.422ZM225.068 150C216.783 150 210.068 156.716 210.068 165C210.068 173.284 216.783 180 225.068 180H226.1C234.384 180 241.1 173.284 241.1 165C241.1 156.716 234.384 150 226.1 150H225.068ZM277.714 150C269.429 150 262.714 156.716 262.714 165C262.714 173.284 269.429 180 277.714 180H278.746C287.03 180 293.746 173.284 293.746 165C293.746 156.716 287.03 150 278.746 150H277.714ZM330.36 150C322.075 150 315.36 156.716 315.36 165C315.36 173.284 322.075 180 330.36 180H331.392C339.676 180 346.392 173.284 346.392 165C346.392 156.716 339.676 150 331.392 150H330.36ZM383.006 150C374.721 150 368.006 156.716 368.006 165C368.006 173.284 374.721 180 383.006 180H384.038C392.322 180 399.038 173.284 399.038 165C399.038 156.716 392.322 150 384.038 150H383.006ZM435.652 150C427.367 150 420.652 156.716 420.652 165C420.652 173.284 427.367 180 435.652 180H436.684C444.968 180 451.684 173.284 451.684 165C451.684 156.716 444.968 150 436.684 150H435.652ZM488.298 150C480.013 150 473.298 156.716 473.298 165C473.298 173.284 480.013 180 488.298 180H489.33C497.614 180 504.33 173.284 504.33 165C504.33 156.716 497.614 150 489.33 150H488.298ZM540.944 150C532.659 150 525.944 156.716 525.944 165C525.944 173.284 532.659 180 540.944 180H541.976C550.26 180 556.976 173.284 556.976 165C556.976 156.716 550.26 150 541.976 150H540.944ZM593.59 150C585.305 150 578.59 156.716 578.59 165C578.59 173.284 585.305 180 593.59 180H594.106C602.39 180 609.106 173.284 609.106 165C609.106 156.716 602.39 150 594.106 150H593.59Z" fill="#3026BF"/>
</svg>
