<svg width="242" height="258" viewBox="0 0 242 258" fill="none" xmlns="http://www.w3.org/2000/svg">
<path fill-rule="evenodd" clip-rule="evenodd" d="M98.3014 4.30342C76.4833 0.53126 50.6034 3.27244 19.0914 14.8291C19.6747 16.0986 20 17.5112 20 18.9997C20 24.5226 15.5228 28.9997 10 28.9997C4.47717 28.9997 0 24.5226 0 18.9997C0 13.4769 4.47717 8.99974 10 8.99974C13.3065 8.99974 16.2383 10.6046 18.0588 13.0779C49.9584 1.32997 76.3088 -1.5286 98.6422 2.33265C123.608 6.64901 143.439 19.3426 160.312 37.1717C177.17 54.9842 191.098 77.9459 204.275 102.846C210.318 114.265 216.211 126.107 222.158 138.058L222.166 138.075L222.174 138.092L223.776 141.311C230.277 154.369 236.865 167.525 243.817 180.4C271.642 231.928 305.182 278.7 361.739 296.123C418.308 313.549 498.221 301.706 619.017 235.125L619.982 236.876C499.027 303.545 418.503 315.702 361.15 298.034C303.786 280.363 269.92 232.947 242.057 181.35C235.088 168.443 228.486 155.259 221.986 142.203L220.386 138.988L220.382 138.98L220.378 138.972C214.426 127.01 208.541 115.183 202.508 103.782C189.351 78.9207 175.525 56.1557 158.86 38.5464C142.21 20.9535 122.748 8.52999 98.3014 4.30342ZM43.4419 164.348C44.5474 164.769 45.7467 165 47 165C52.5228 165 57 160.523 57 155C57 149.477 52.5228 145 47 145C41.4772 145 37 149.477 37 155C37 158.554 38.854 161.675 41.6476 163.448C35.2007 173.88 33.6898 183.787 36.212 193.187C39.2791 204.618 48.2554 215.08 60.9741 224.719C86.4132 243.999 127.371 260.386 168.418 274.819C181.978 279.586 195.545 284.14 208.582 288.516C235.098 297.416 259.42 305.579 277.02 313.307C283.572 316.184 289.159 318.987 293.562 321.73C297.98 324.483 301.125 327.127 302.875 329.657C304.592 332.141 304.924 334.433 303.9 336.686C302.831 339.038 300.204 341.535 295.516 344.126L296.484 345.876C301.296 343.217 304.383 340.456 305.721 337.513C307.104 334.471 306.534 331.433 304.52 328.52C302.537 325.654 299.118 322.836 294.619 320.033C290.104 317.219 284.42 314.372 277.824 311.476C260.142 303.712 235.67 295.498 209.094 286.577L209.084 286.574C196.071 282.206 182.553 277.669 169.081 272.932C128.004 258.489 87.3367 242.189 62.1821 223.125C49.6041 213.592 41.0415 203.469 38.1437 192.669C35.7808 183.862 37.1479 174.458 43.4419 164.348Z" fill="white"/>
</svg>
