<svg width="24" height="28" viewBox="0 0 24 28" fill="none" xmlns="http://www.w3.org/2000/svg">
<path fill-rule="evenodd" clip-rule="evenodd" d="M12 2.26706C9.23858 2.26706 7 4.80456 7 7.93471C7 11.0649 9.23858 13.6024 12 13.6024C14.7614 13.6024 17 11.0649 17 7.93471C17 4.80456 14.7614 2.26706 12 2.26706ZM9 7.93471C9 6.05662 10.3431 4.53412 12 4.53412C13.6569 4.53412 15 6.05662 15 7.93471C15 9.81281 13.6569 11.3353 12 11.3353C10.3431 11.3353 9 9.81281 9 7.93471Z" fill="#FD9131"/>
<path fill-rule="evenodd" clip-rule="evenodd" d="M12 15.3027C7.5502 15.3027 5.07689 17.009 3.93312 18.147C3.22723 18.8493 3 19.8363 3 20.6809C3 23.0318 4.68132 24.9377 6.75534 24.9377H17.2447C19.3187 24.9377 21 23.0318 21 20.6809C21 19.8363 20.7728 18.8493 20.0669 18.147C18.9231 17.009 16.4498 15.3027 12 15.3027ZM5.25244 19.8508C6.03934 19.0679 8.04626 17.5697 12 17.5697C15.9537 17.5697 17.9607 19.0679 18.7476 19.8508C18.8856 19.9882 19 20.2526 19 20.6809C19 21.7798 18.2141 22.6706 17.2447 22.6706H6.75534C5.78589 22.6706 5 21.7798 5 20.6809C5 20.2526 5.11441 19.9882 5.25244 19.8508Z" fill="#FD9131"/>
</svg>
