<svg width="410" height="200" viewBox="0 0 410 200" fill="none" xmlns="http://www.w3.org/2000/svg">
<rect x="212" y="2" width="196" height="56" stroke="#0B0F19" stroke-width="4"/>
<circle cx="238" cy="30" r="11" stroke="#0B0F19" stroke-width="4"/>
<circle cx="238" cy="30" r="11" stroke="#0B0F19" stroke-width="4"/>
<circle cx="268" cy="30" r="11" stroke="#0B0F19" stroke-width="4"/>
<circle cx="268" cy="30" r="11" stroke="#0B0F19" stroke-width="4"/>
<line x1="397" y1="17" x2="397" y2="43" stroke="#0B0F19" stroke-width="4"/>
<line x1="382" y1="17" x2="382" y2="43" stroke="#0B0F19" stroke-width="4"/>
<line x1="367" y1="17" x2="367" y2="43" stroke="#0B0F19" stroke-width="4"/>
<line x1="352" y1="17" x2="352" y2="43" stroke="#0B0F19" stroke-width="4"/>
<rect x="212" y="72" width="196" height="56" stroke="#0B0F19" stroke-width="4"/>
<circle cx="238" cy="100" r="11" stroke="#0B0F19" stroke-width="4"/>
<circle cx="238" cy="100" r="11" stroke="#0B0F19" stroke-width="4"/>
<circle cx="268" cy="100" r="11" stroke="#0B0F19" stroke-width="4"/>
<circle cx="268" cy="100" r="11" stroke="#0B0F19" stroke-width="4"/>
<line x1="397" y1="87" x2="397" y2="113" stroke="#0B0F19" stroke-width="4"/>
<line x1="382" y1="87" x2="382" y2="113" stroke="#0B0F19" stroke-width="4"/>
<line x1="367" y1="87" x2="367" y2="113" stroke="#0B0F19" stroke-width="4"/>
<line x1="352" y1="87" x2="352" y2="113" stroke="#0B0F19" stroke-width="4"/>
<rect x="212" y="142" width="196" height="56" stroke="#0B0F19" stroke-width="4"/>
<circle cx="238" cy="170" r="11" stroke="#0B0F19" stroke-width="4"/>
<circle cx="238" cy="170" r="11" stroke="#0B0F19" stroke-width="4"/>
<circle cx="268" cy="170" r="11" stroke="#0B0F19" stroke-width="4"/>
<circle cx="268" cy="170" r="11" stroke="#0B0F19" stroke-width="4"/>
<line x1="397" y1="157" x2="397" y2="183" stroke="#0B0F19" stroke-width="4"/>
<line x1="382" y1="157" x2="382" y2="183" stroke="#0B0F19" stroke-width="4"/>
<line x1="367" y1="157" x2="367" y2="183" stroke="#0B0F19" stroke-width="4"/>
<line x1="352" y1="157" x2="352" y2="183" stroke="#0B0F19" stroke-width="4"/>
<circle cx="238" cy="30" r="4" fill="#FE0032"/>
<circle cx="238" cy="30" r="4" fill="#FE0032"/>
<circle cx="238" cy="30" r="4" fill="#FE0032"/>
<circle cx="238" cy="100" r="4" fill="#FE0032"/>
<circle cx="238" cy="100" r="4" fill="#FE0032"/>
<circle cx="238" cy="100" r="4" fill="#FE0032"/>
<circle cx="268" cy="100" r="4" fill="#68B019"/>
<circle cx="268" cy="170" r="4" fill="#FE0032"/>
<circle cx="268" cy="170" r="4" fill="#FE0032"/>
<circle cx="268" cy="170" r="4" fill="#FE0032"/>
<circle cx="238" cy="170" r="4" fill="#68B019"/>
<circle cx="268" cy="30" r="4" fill="#FE0032"/>
<rect x="2" y="2" width="196" height="56" stroke="#0B0F19" stroke-width="4"/>
<circle cx="28" cy="30" r="11" stroke="#0B0F19" stroke-width="4"/>
<circle cx="28" cy="30" r="11" stroke="#0B0F19" stroke-width="4"/>
<circle cx="58" cy="30" r="11" stroke="#0B0F19" stroke-width="4"/>
<circle cx="58" cy="30" r="11" stroke="#0B0F19" stroke-width="4"/>
<line x1="187" y1="17" x2="187" y2="43" stroke="#0B0F19" stroke-width="4"/>
<line x1="172" y1="17" x2="172" y2="43" stroke="#0B0F19" stroke-width="4"/>
<line x1="157" y1="17" x2="157" y2="43" stroke="#0B0F19" stroke-width="4"/>
<line x1="142" y1="17" x2="142" y2="43" stroke="#0B0F19" stroke-width="4"/>
<rect x="2" y="72" width="196" height="56" stroke="#0B0F19" stroke-width="4"/>
<circle cx="28" cy="100" r="11" stroke="#0B0F19" stroke-width="4"/>
<circle cx="28" cy="100" r="11" stroke="#0B0F19" stroke-width="4"/>
<circle cx="58" cy="100" r="11" stroke="#0B0F19" stroke-width="4"/>
<circle cx="58" cy="100" r="11" stroke="#0B0F19" stroke-width="4"/>
<line x1="187" y1="87" x2="187" y2="113" stroke="#0B0F19" stroke-width="4"/>
<line x1="172" y1="87" x2="172" y2="113" stroke="#0B0F19" stroke-width="4"/>
<line x1="157" y1="87" x2="157" y2="113" stroke="#0B0F19" stroke-width="4"/>
<line x1="142" y1="87" x2="142" y2="113" stroke="#0B0F19" stroke-width="4"/>
<rect x="2" y="142" width="196" height="56" stroke="#0B0F19" stroke-width="4"/>
<circle cx="28" cy="170" r="11" stroke="#0B0F19" stroke-width="4"/>
<circle cx="28" cy="170" r="11" stroke="#0B0F19" stroke-width="4"/>
<circle cx="58" cy="170" r="11" stroke="#0B0F19" stroke-width="4"/>
<circle cx="58" cy="170" r="11" stroke="#0B0F19" stroke-width="4"/>
<line x1="187" y1="157" x2="187" y2="183" stroke="#0B0F19" stroke-width="4"/>
<line x1="172" y1="157" x2="172" y2="183" stroke="#0B0F19" stroke-width="4"/>
<line x1="157" y1="157" x2="157" y2="183" stroke="#0B0F19" stroke-width="4"/>
<line x1="142" y1="157" x2="142" y2="183" stroke="#0B0F19" stroke-width="4"/>
<circle cx="28" cy="30" r="4" fill="#FE0032"/>
<circle cx="28" cy="30" r="4" fill="#FE0032"/>
<circle cx="28" cy="30" r="4" fill="#FE0032"/>
<circle cx="28" cy="100" r="4" fill="#68B019"/>
<circle cx="58" cy="100" r="4" fill="#68B019"/>
<circle cx="58" cy="170" r="4" fill="#FE0032"/>
<circle cx="28" cy="170" r="4" fill="#FE0032"/>
<circle cx="58" cy="30" r="4" fill="#68B019"/>
</svg>
