<svg width="683" height="683" viewBox="0 0 683 683" fill="none" xmlns="http://www.w3.org/2000/svg">
<g clip-path="url(#clip0_52_174)">
<path d="M222 37.0666C206 42.6666 194.667 52.6666 187.6 67.7333L183.333 76.6666L182.933 106.267L182.533 136H109.467C63.0667 136 33.6 136.533 28.6667 137.467C15.6 139.867 6.40001 147.6 2.00001 159.867C0.266676 164.933 9.08812e-06 182.933 9.08812e-06 297.2C9.08812e-06 442 -0.399991 435.467 8.13334 445.733C10.4 448.533 14.5333 452 17.4667 453.333L22.6667 456V536.8C22.6667 589.2 23.2 619.467 24.1333 623.067C26.2667 631.733 33.3333 640.4 41.4667 644.533L48.5333 648H341.333H634.133L641.2 644.533C649.333 640.4 656.4 631.733 658.533 623.067C659.467 619.467 660 589.2 660 536.8V456L665.2 453.333C668.133 452 672.267 448.533 674.533 445.733C683.067 435.467 682.667 442 682.667 297.2C682.667 182.933 682.4 164.933 680.667 159.867C676.267 147.6 667.067 139.867 654 137.467C649.067 136.533 619.6 136 573.2 136H500.133L499.733 106.267L499.333 76.5333L494.4 66.5333C488.267 54.1333 479.467 45.4666 466.933 39.6L458 35.3333L343.333 35.0666C237.2 34.8 228.133 34.9333 222 37.0666ZM457.333 60.1333C465.333 63.7333 470.4 68.6666 474.133 76.6666C477.2 82.9333 477.333 84.8 477.333 109.6V136H466H454.667V111.333C454.667 86.8 454.667 86.5333 451.333 83.3333L448.133 80H341.333H234.533L231.333 83.3333C228 86.5333 228 86.8 228 111.333V136H216.667H205.333V109.6C205.333 86 205.733 82.6666 208.133 77.3333C211.733 69.3333 216.667 64.2666 224.667 60.5333L231.333 57.3333H341.333C449.067 57.3333 451.467 57.4666 457.333 60.1333ZM432 119.333V136H341.333H250.667V119.333V102.667H341.333H432V119.333ZM650.933 160.133C660.533 162.667 660 154.533 660 297.333C660 440.133 660.533 432 650.933 434.667C645.733 436.133 394.8 470.667 389.733 470.667C386.8 470.667 386.667 470.133 386.667 460.133C386.667 443.333 381.333 432.533 369.467 425.6C363.467 422.133 362.8 422 341.333 422C319.867 422 319.2 422.133 313.2 425.6C301.333 432.533 296 443.333 296 460.133C296 470.133 295.867 470.667 293.067 470.667C287.867 470.667 36.9333 436.133 31.7333 434.667C22.1333 432 22.6667 440.133 22.6667 297.333C22.6667 155.733 22.2667 162.667 31.0667 160.133C37.3333 158.4 644.533 158.267 650.933 160.133ZM360.533 447.467L364 451.067V488.133C364 527.467 363.6 530.533 357.733 533.2C353.6 535.067 329.067 535.067 324.933 533.2C319.067 530.533 318.667 527.467 318.667 488.133V451.067L322.133 447.467C325.6 444.133 326.267 444 341.333 444C356.4 444 357.067 444.133 360.533 447.467ZM171.333 477.333C235.867 486.133 290.267 493.733 292.267 494.133L295.867 494.8L296.267 513.733C296.667 534.667 298.133 539.333 306 547.333C314.4 555.6 318.4 556.667 341.333 556.667C364.267 556.667 368.267 555.6 376.667 547.333C384.533 539.333 386 534.667 386.4 513.733L386.8 494.8L390.4 494.133C392.4 493.733 446.8 486.133 511.333 477.333C575.867 468.533 630.667 460.933 633.067 460.533L637.333 459.733V538C637.333 618.267 637.2 619.733 632.133 623.6C629.067 626 53.6 626 50.5333 623.6C45.4667 619.733 45.3333 618.267 45.3333 538V459.733L49.7333 460.533C52 460.933 106.8 468.533 171.333 477.333Z" fill="#181066"/>
</g>
<defs>
<clipPath id="clip0_52_174">
<rect width="682.667" height="682.667" fill="white"/>
</clipPath>
</defs>
</svg>
