<svg width="60" height="60" viewBox="0 0 60 60" fill="none" xmlns="http://www.w3.org/2000/svg">
<g id="youtube">
<path id="Vector" fill-rule="evenodd" clip-rule="evenodd" d="M20 21.3781C20 20.3188 21.2965 19.6568 22.3339 20.1863L39.2221 28.8084C40.2593 29.3381 40.2593 30.6619 39.2221 31.1916L22.3339 39.8136C21.2965 40.3432 20 39.6812 20 38.6221V21.3781ZM34.8877 30.0001L23.3342 35.8985V24.1015L34.8877 30.0001Z" fill="white"/>
<path id="Vector_2" fill-rule="evenodd" clip-rule="evenodd" d="M51.3453 49.9581C55.4822 49.5985 58.8434 46.4615 59.31 42.3354C59.7619 38.3389 60 34.1883 60 29.9302C60 25.6723 59.7619 21.5215 59.31 17.5251C58.8434 13.3989 55.4822 10.2619 51.3453 9.90237C44.5917 9.31563 37.4248 9 30 9C22.575 9 15.4082 9.31563 8.65469 9.90237C4.51784 10.2619 1.15658 13.3989 0.69 17.5251C0.238106 21.5215 0 25.6723 0 29.9302C0 34.1883 0.238106 38.3389 0.69 42.3354C1.15658 46.4616 4.51784 49.5985 8.65469 49.9581C15.4082 50.5448 22.575 50.8604 30 50.8604C37.4248 50.8604 44.5917 50.5448 51.3453 49.9581ZM56.8421 29.9302C56.8421 34.071 56.6105 38.1032 56.1722 41.9806C55.8821 44.5451 53.7805 46.5766 51.072 46.812C44.412 47.3907 37.3363 47.7025 30 47.7025C22.6636 47.7025 15.588 47.3907 8.92816 46.812C6.21947 46.5766 4.1179 44.5451 3.82784 41.9806C3.38953 38.1032 3.15789 34.071 3.15789 29.9302C3.15789 25.7894 3.38953 21.7573 3.82784 17.8798C4.1179 15.3153 6.21947 13.2838 8.92816 13.0484C15.588 12.4697 22.6636 12.1579 30 12.1579C37.3363 12.1579 44.412 12.4697 51.072 13.0484C53.7805 13.2838 55.8821 15.3153 56.1722 17.8798C56.6105 21.7573 56.8421 25.7894 56.8421 29.9302Z" fill="white"/>
</g>
</svg>
