<svg width="60" height="60" viewBox="0 0 60 60" fill="none" xmlns="http://www.w3.org/2000/svg">
<path fill-rule="evenodd" clip-rule="evenodd" d="M26.2104 26.0555C26.2104 25.5166 26.7937 25.1798 27.2604 25.4492L34.8582 29.8358C35.3248 30.1053 35.3248 30.7788 34.8582 31.0483L27.2604 35.4349C26.7937 35.7043 26.2104 35.3675 26.2104 34.8287V26.0555ZM32.9082 30.4421L27.7104 33.443V27.4411L32.9082 30.4421Z" fill="white"/>
<path fill-rule="evenodd" clip-rule="evenodd" d="M43.5187 42.9401C46.1387 42.7124 48.2675 40.7256 48.563 38.1124C48.8492 35.5813 49 32.9526 49 30.2558C49 27.5591 48.8492 24.9303 48.563 22.3992C48.2675 19.786 46.1387 17.7992 43.5187 17.5715C39.2414 17.1999 34.7024 17 30 17C25.2975 17 20.7585 17.1999 16.4813 17.5715C13.8613 17.7992 11.7325 19.786 11.437 22.3992C11.1508 24.9303 11 27.5591 11 30.2558C11 32.9526 11.1508 35.5813 11.437 38.1124C11.7325 40.7257 13.8613 42.7124 16.4813 42.9401C20.7585 43.3117 25.2975 43.5116 30 43.5116C34.7024 43.5116 39.2414 43.3117 43.5187 42.9401ZM47 30.2558C47 32.8783 46.8533 35.432 46.5757 37.8877C46.392 39.5119 45.061 40.7985 43.3456 40.9476C39.1276 41.3141 34.6463 41.5116 30 41.5116C25.3536 41.5116 20.8724 41.3141 16.6545 40.9476C14.939 40.7985 13.608 39.5119 13.4243 37.8877C13.1467 35.432 13 32.8783 13 30.2558C13 27.6333 13.1467 25.0796 13.4243 22.6239C13.608 20.9997 14.939 19.7131 16.6545 19.564C20.8724 19.1975 25.3536 19 30 19C34.6463 19 39.1276 19.1975 43.3456 19.564C45.061 19.7131 46.392 20.9997 46.5757 22.6239C46.8533 25.0796 47 27.6333 47 30.2558Z" fill="white"/>
</svg>
