<svg width="64" height="72" viewBox="0 0 64 72" fill="none" xmlns="http://www.w3.org/2000/svg">
<path d="M17 9.55556H14.0008C9.80034 9.55556 7.69858 9.55556 6.09425 10.3791C4.68301 11.1034 3.53649 12.2584 2.81746 13.6801C2 15.2963 2 17.4137 2 21.6452V24.6667M17 9.55556H47M17 9.55556V2M2 24.6667V57.9119C2 62.1434 2 64.2582 2.81746 65.8743C3.53649 67.2959 4.68301 68.453 6.09425 69.1772C7.697 70 9.79621 70 13.9884 70H50.0116C54.2038 70 56.3 70 57.9028 69.1772C59.3139 68.453 60.4644 67.2959 61.1833 65.8743C62 64.2597 62 62.1479 62 57.9247V24.6667M2 24.6667H62M47 9.55556H50.0007C54.2011 9.55556 56.2985 9.55556 57.9028 10.3791C59.3139 11.1034 60.4644 12.2584 61.1833 13.6801C62 15.2948 62 17.4095 62 21.6328V24.6667M47 9.55556V2M47 54.8889H47.0075V54.8964H47V54.8889ZM32 54.8889H32.0075V54.8964H32V54.8889ZM17 54.8889H17.0075L17.0073 54.8964H17V54.8889ZM47.0075 39.7778V39.7853H47V39.7778H47.0075ZM32 39.7778H32.0075V39.7853H32V39.7778ZM17 39.7778H17.0075L17.0073 39.7853H17V39.7778Z" stroke="white" stroke-width="3" stroke-linecap="round" stroke-linejoin="round"/>
</svg>
