<svg width="414" height="180" viewBox="0 0 414 180" fill="none" xmlns="http://www.w3.org/2000/svg">
<path fill-rule="evenodd" clip-rule="evenodd" d="M-48 0C-56.2843 0 -63 6.71573 -63 15C-63 23.2843 -56.2843 30 -48 30H-47.5134C-39.2292 30 -32.5134 23.2843 -32.5134 15C-32.5134 6.71573 -39.2292 0 -47.5134 0H-48ZM1.14404 0C-7.14022 0 -13.856 6.71573 -13.856 15C-13.856 23.2843 -7.14022 30 1.14404 30H2.1172C10.4015 30 17.1172 23.2843 17.1172 15C17.1172 6.71573 10.4015 0 2.1172 0H1.14404ZM50.7747 0C42.4904 0 35.7747 6.71573 35.7747 15C35.7747 23.2843 42.4904 30 50.7747 30H51.7478C60.0321 30 66.7478 23.2843 66.7478 15C66.7478 6.71573 60.0321 0 51.7478 0H50.7747ZM100.405 0C92.121 0 85.4053 6.71573 85.4053 15C85.4053 23.2843 92.121 30 100.405 30H101.378C109.663 30 116.378 23.2843 116.378 15C116.378 6.71573 109.663 0 101.378 0H100.405ZM150.036 0C141.752 0 135.036 6.71573 135.036 15C135.036 23.2843 141.752 30 150.036 30H151.009C159.293 30 166.009 23.2843 166.009 15C166.009 6.71573 159.293 0 151.009 0H150.036ZM199.667 0C191.382 0 184.667 6.71573 184.667 15C184.667 23.2843 191.382 30 199.667 30H200.64C208.924 30 215.64 23.2843 215.64 15C215.64 6.71573 208.924 0 200.64 0H199.667ZM249.297 0C241.013 0 234.297 6.71573 234.297 15C234.297 23.2843 241.013 30 249.297 30H250.27C258.555 30 265.27 23.2843 265.27 15C265.27 6.71573 258.555 0 250.27 0H249.297ZM298.928 0C290.643 0 283.928 6.71573 283.928 15C283.928 23.2843 290.643 30 298.928 30H299.901C308.185 30 314.901 23.2843 314.901 15C314.901 6.71573 308.185 0 299.901 0H298.928ZM348.558 0C340.274 0 333.558 6.71573 333.558 15C333.558 23.2843 340.274 30 348.558 30H349.531C357.816 30 364.531 23.2843 364.531 15C364.531 6.71573 357.816 0 349.531 0H348.558ZM398.189 0C389.905 0 383.189 6.71573 383.189 15C383.189 23.2843 389.905 30 398.189 30H398.676C406.96 30 413.676 23.2843 413.676 15C413.676 6.71573 406.96 0 398.676 0H398.189ZM-63 65C-63 56.7157 -56.2843 50 -48 50H-47.5134C-39.2292 50 -32.5134 56.7157 -32.5134 65C-32.5134 73.2843 -39.2292 80 -47.5134 80H-48C-56.2843 80 -63 73.2843 -63 65ZM-13.856 65C-13.856 56.7157 -7.14022 50 1.14404 50H2.1172C10.4015 50 17.1172 56.7157 17.1172 65C17.1172 73.2843 10.4015 80 2.1172 80H1.14404C-7.14022 80 -13.856 73.2843 -13.856 65ZM35.7747 65C35.7747 56.7157 42.4904 50 50.7747 50H51.7478C60.0321 50 66.7478 56.7157 66.7478 65C66.7478 73.2843 60.0321 80 51.7478 80H50.7747C42.4904 80 35.7747 73.2843 35.7747 65ZM85.4053 65C85.4053 56.7157 92.121 50 100.405 50H101.378C109.663 50 116.378 56.7157 116.378 65C116.378 73.2843 109.663 80 101.378 80H100.405C92.121 80 85.4053 73.2843 85.4053 65ZM135.036 65C135.036 56.7157 141.752 50 150.036 50H151.009C159.293 50 166.009 56.7157 166.009 65C166.009 73.2843 159.293 80 151.009 80H150.036C141.752 80 135.036 73.2843 135.036 65ZM184.667 65C184.667 56.7157 191.382 50 199.667 50H200.64C208.924 50 215.64 56.7157 215.64 65C215.64 73.2843 208.924 80 200.64 80H199.667C191.382 80 184.667 73.2843 184.667 65ZM234.297 65C234.297 56.7157 241.013 50 249.297 50H250.27C258.555 50 265.27 56.7157 265.27 65C265.27 73.2843 258.555 80 250.27 80H249.297C241.013 80 234.297 73.2843 234.297 65ZM283.928 65C283.928 56.7157 290.643 50 298.928 50H299.901C308.185 50 314.901 56.7157 314.901 65C314.901 73.2843 308.185 80 299.901 80H298.928C290.643 80 283.928 73.2843 283.928 65ZM333.558 65C333.558 56.7157 340.274 50 348.558 50H349.531C357.816 50 364.531 56.7157 364.531 65C364.531 73.2843 357.816 80 349.531 80H348.558C340.274 80 333.558 73.2843 333.558 65ZM383.189 65C383.189 56.7157 389.905 50 398.189 50H398.676C406.96 50 413.676 56.7157 413.676 65C413.676 73.2843 406.96 80 398.676 80H398.189C389.905 80 383.189 73.2843 383.189 65ZM-48 100C-56.2843 100 -63 106.716 -63 115C-63 123.284 -56.2843 130 -48 130H-47.5134C-39.2292 130 -32.5134 123.284 -32.5134 115C-32.5134 106.716 -39.2292 100 -47.5134 100H-48ZM1.14404 100C-7.14022 100 -13.856 106.716 -13.856 115C-13.856 123.284 -7.14022 130 1.14404 130H2.1172C10.4015 130 17.1172 123.284 17.1172 115C17.1172 106.716 10.4015 100 2.1172 100H1.14404ZM50.7747 100C42.4904 100 35.7747 106.716 35.7747 115C35.7747 123.284 42.4904 130 50.7747 130H51.7478C60.0321 130 66.7478 123.284 66.7478 115C66.7478 106.716 60.0321 100 51.7478 100H50.7747ZM100.405 100C92.121 100 85.4053 106.716 85.4053 115C85.4053 123.284 92.121 130 100.405 130H101.378C109.663 130 116.378 123.284 116.378 115C116.378 106.716 109.663 100 101.378 100H100.405ZM150.036 100C141.752 100 135.036 106.716 135.036 115C135.036 123.284 141.752 130 150.036 130H151.009C159.293 130 166.009 123.284 166.009 115C166.009 106.716 159.293 100 151.009 100H150.036ZM199.667 100C191.382 100 184.667 106.716 184.667 115C184.667 123.284 191.382 130 199.667 130H200.64C208.924 130 215.64 123.284 215.64 115C215.64 106.716 208.924 100 200.64 100H199.667ZM249.297 100C241.013 100 234.297 106.716 234.297 115C234.297 123.284 241.013 130 249.297 130H250.27C258.555 130 265.27 123.284 265.27 115C265.27 106.716 258.555 100 250.27 100H249.297ZM298.928 100C290.643 100 283.928 106.716 283.928 115C283.928 123.284 290.643 130 298.928 130H299.901C308.185 130 314.901 123.284 314.901 115C314.901 106.716 308.185 100 299.901 100H298.928ZM348.558 100C340.274 100 333.558 106.716 333.558 115C333.558 123.284 340.274 130 348.558 130H349.531C357.816 130 364.531 123.284 364.531 115C364.531 106.716 357.816 100 349.531 100H348.558ZM398.189 100C389.905 100 383.189 106.716 383.189 115C383.189 123.284 389.905 130 398.189 130H398.676C406.96 130 413.676 123.284 413.676 115C413.676 106.716 406.96 100 398.676 100H398.189ZM-48 150C-56.2843 150 -63 156.716 -63 165C-63 173.284 -56.2843 180 -48 180H-47.5134C-39.2292 180 -32.5134 173.284 -32.5134 165C-32.5134 156.716 -39.2292 150 -47.5134 150H-48ZM1.14404 150C-7.14022 150 -13.856 156.716 -13.856 165C-13.856 173.284 -7.14022 180 1.14404 180H2.1172C10.4015 180 17.1172 173.284 17.1172 165C17.1172 156.716 10.4015 150 2.1172 150H1.14404ZM50.7747 150C42.4904 150 35.7747 156.716 35.7747 165C35.7747 173.284 42.4904 180 50.7747 180H51.7478C60.0321 180 66.7478 173.284 66.7478 165C66.7478 156.716 60.0321 150 51.7478 150H50.7747ZM100.405 150C92.121 150 85.4053 156.716 85.4053 165C85.4053 173.284 92.121 180 100.405 180H101.378C109.663 180 116.378 173.284 116.378 165C116.378 156.716 109.663 150 101.378 150H100.405ZM150.036 150C141.752 150 135.036 156.716 135.036 165C135.036 173.284 141.752 180 150.036 180H151.009C159.293 180 166.009 173.284 166.009 165C166.009 156.716 159.293 150 151.009 150H150.036ZM199.667 150C191.382 150 184.667 156.716 184.667 165C184.667 173.284 191.382 180 199.667 180H200.64C208.924 180 215.64 173.284 215.64 165C215.64 156.716 208.924 150 200.64 150H199.667ZM249.297 150C241.013 150 234.297 156.716 234.297 165C234.297 173.284 241.013 180 249.297 180H250.27C258.555 180 265.27 173.284 265.27 165C265.27 156.716 258.555 150 250.27 150H249.297ZM298.928 150C290.643 150 283.928 156.716 283.928 165C283.928 173.284 290.643 180 298.928 180H299.901C308.185 180 314.901 173.284 314.901 165C314.901 156.716 308.185 150 299.901 150H298.928ZM348.558 150C340.274 150 333.558 156.716 333.558 165C333.558 173.284 340.274 180 348.558 180H349.531C357.816 180 364.531 173.284 364.531 165C364.531 156.716 357.816 150 349.531 150H348.558ZM398.189 150C389.905 150 383.189 156.716 383.189 165C383.189 173.284 389.905 180 398.189 180H398.676C406.96 180 413.676 173.284 413.676 165C413.676 156.716 406.96 150 398.676 150H398.189Z" fill="#E3822C"/>
</svg>
