<svg width="24" height="24" viewBox="0 0 24 24" fill="none" xmlns="http://www.w3.org/2000/svg">
<path fill-rule="evenodd" clip-rule="evenodd" d="M8.5 5C8.5 3.34315 9.84315 2 11.5 2H12.5C14.1569 2 15.5 3.34315 15.5 5V6C15.5 7.48679 14.4184 8.72097 12.9992 8.95866C12.9997 8.97237 13 8.98615 13 9V11H14.5C16.1569 11 17.5 12.3431 17.5 14V15.0415C18.9189 15.2795 20 16.5135 20 18V19C20 20.6569 18.6569 22 17 22H16C14.3431 22 13 20.6569 13 19V18C13 16.5135 14.0811 15.2795 15.5 15.0415V14C15.5 13.4477 15.0523 13 14.5 13H9.5C8.94772 13 8.5 13.4477 8.5 14V15C8.5 15.0138 8.49971 15.0276 8.49916 15.0413C9.91843 15.279 11 16.5132 11 18V19C11 20.6569 9.65685 22 8 22H7C5.34315 22 4 20.6569 4 19V18C4 16.5132 5.08157 15.279 6.50084 15.0413C6.50029 15.0276 6.5 15.0138 6.5 15V14C6.5 12.3431 7.84315 11 9.5 11H11V9C11 8.98615 11.0003 8.97237 11.0008 8.95866C9.58157 8.72097 8.5 7.48679 8.5 6V5ZM11.5 4C10.9477 4 10.5 4.44772 10.5 5V6C10.5 6.55228 10.9477 7 11.5 7H12.5C13.0523 7 13.5 6.55228 13.5 6V5C13.5 4.44772 13.0523 4 12.5 4H11.5ZM16 17C15.4477 17 15 17.4477 15 18V19C15 19.5523 15.4477 20 16 20H17C17.5523 20 18 19.5523 18 19V18C18 17.4477 17.5523 17 17 17H16ZM7 17C6.44772 17 6 17.4477 6 18V19C6 19.5523 6.44772 20 7 20H8C8.55228 20 9 19.5523 9 19V18C9 17.4477 8.55228 17 8 17H7Z" fill="#FD9131"/>
</svg>
