<svg width="683" height="683" viewBox="0 0 683 683" fill="none" xmlns="http://www.w3.org/2000/svg">
<g clip-path="url(#clip0_52_163)">
<path d="M45.3333 1.46673C24 5.60006 5.46665 24.5334 1.33332 46.6667C-0.533348 56.4001 -0.533348 478.267 1.33332 488C5.46665 509.867 21.6 526.933 43.3333 532.667C50.2667 534.4 73.2 534.667 224.933 534.667H398.667V605.067C398.667 674 398.667 675.6 401.333 678.4C406.4 683.867 408.933 683.467 444.267 671.733L478 660.4L511.333 671.6C529.6 677.6 545.733 682.667 547.067 682.667C548.4 682.667 551.333 680.933 553.467 678.8L557.333 674.933V604.8V534.8L597.733 534.4C637.733 534 638 534 646.4 530.533C661.867 524 672 513.867 678.533 498.4L682 490L682.4 272.133C682.533 128.533 682.267 51.6001 681.333 46.8001C677.2 24.1334 658.8 5.60006 636 1.33339C627.067 -0.399939 54 -0.266606 45.3333 1.46673ZM77.8667 26.2667C71.7333 51.7334 51.7333 71.7334 26.4 77.8667L22.6667 78.6667V65.4667C22.6667 49.2001 25.4667 40.2667 33.0667 32.9334C40.8 25.3334 48.8 22.8001 65.0667 22.6667H78.6667L77.8667 26.2667ZM583.2 32.4001C590.4 64.6667 618 92.1334 650.4 99.4667L660 101.6V267.333V433.2L652.667 434.667C618.133 441.867 589.867 470 582.667 504.267L581.2 512H569.2H557.333L557.6 478.533L558 445.2L565.733 442.133C583.333 434.933 588.933 426.267 590.267 404C591.067 391.6 591.467 389.867 595.733 382.933C605.867 366.533 608 361.467 608 352.8C608 343.467 605.6 337.467 597.2 325.067C591.867 317.2 591.467 316.133 590.533 303.867C589.333 288.133 587.733 282 583.467 276.133C578.933 270 572.667 266 560.133 261.2C548.8 256.933 546.667 255.2 537.333 243.733C529.067 233.6 523.6 229.733 515.067 227.867C508.4 226.267 506.4 226.533 492.667 229.867L477.6 233.6L463.333 230C441.067 224.4 430.8 227.467 418.133 243.867C410.533 253.6 407.067 256.8 401.067 259.333C396.667 261.067 384.267 261.333 306 261.333H216V272.667V284H292.133C364.133 284 368.267 284.133 367.333 286.267C366.8 287.6 366 294.8 365.467 302.267C364.533 314.933 364.133 316.4 359.467 323.6C350.533 337.467 347.6 345.067 347.6 353.467C347.733 361.467 349.733 366.133 360 382.4C364 388.667 364.533 390.8 365.467 402.4C366.533 417.867 367.467 421.867 371.467 428.133C375.2 434.133 380.667 438.133 390.533 442.133L398 445.2L398.4 478.533L398.667 512H250.133H101.467L100 504.267C92.8 469.867 64.6667 441.867 30 434.667L22.6667 433.2V267.333V101.6L32.2667 99.4667C64.8 92.1334 92.2667 64.6667 99.4667 32.4001L101.6 22.6667H341.333H581.067L583.2 32.4001ZM637.6 25.3334C653.2 31.2001 660 43.4667 660 65.4667V78.6667L656.4 77.8667C630.933 71.7334 610.933 51.7334 604.8 26.2667L604 22.6667H617.333C627.333 22.6667 632.4 23.3334 637.6 25.3334ZM460.267 252.667C477.467 256.8 478.8 256.8 496.4 252.4L510.933 248.8L516.933 255.333C535.333 275.6 537.867 277.6 554.133 283.333C557.867 284.667 562 286.533 563.333 287.467C566 289.467 567.733 297.867 567.867 308.933C568 318.533 571.067 326.933 578.8 338.8C582.933 345.067 585.333 350.267 585.333 352.8C585.333 355.2 583.067 360 579.467 365.467C570.933 378 569.333 382.8 567.867 399.333C567.067 407.333 565.867 414.933 565.333 416.133C564.667 417.333 560.267 419.733 555.733 421.333C537.6 428 535.333 429.6 516.933 450L510.933 456.667L497.733 453.333C481.867 449.333 472.133 449.333 458.133 453.2C452.4 454.933 446.4 455.867 444.667 455.467C443.067 455.067 439.067 451.333 436 447.333C426 434.4 418.533 428.667 404.533 423.2C396.4 420.133 391.333 417.333 390.4 415.467C389.6 414 388.4 406.133 387.867 398.267C386.667 382.933 385.867 380.533 374.667 363.067C372.267 359.2 370.4 354.533 370.4 352.667C370.4 350.8 372.267 346.133 374.667 342.267C386 324.533 386.8 322.133 387.867 306.933C388.4 299.067 389.467 291.467 390.267 289.867C391.2 288.267 396.667 285.333 404.933 282C418.533 276.8 422.133 273.867 439.067 254.933C441.733 251.867 444.533 249.333 445.2 249.333C446 249.333 452.667 250.8 460.267 252.667ZM36.6667 460.267C56.6667 468 72.6667 486.8 77.8667 508.533L78.8 512.267L63.0667 511.733C45.6 511.2 41.6 509.867 32.9333 501.6C25.6 494.4 22.6667 485.467 22.6667 469.2V456L26.4 456.8C28.4 457.333 32.9333 458.933 36.6667 460.267ZM660 469.333C660 485.467 657.067 494.4 649.733 501.6C641.067 509.867 637.067 511.2 619.6 511.733L603.867 512.267L604.8 508.533C608.8 491.867 618 478.133 631.733 468.4C638.533 463.467 654.8 456.133 659.067 456C659.6 456 660 462 660 469.333ZM534.133 654.4C533.733 654.667 521.6 650.933 507.067 646.133C492.533 641.333 479.467 637.333 478 637.333C476.533 637.333 463.6 641.2 449.333 646C435.067 650.8 422.933 654.667 422.4 654.667C421.867 654.667 421.333 612.4 421.333 560.667V466.667L427.333 471.333C433.467 476 440.533 478.667 446.667 478.667C448.533 478.667 456.267 477.067 463.867 475.2L477.6 471.867L491.867 475.2C499.733 477.067 507.6 478.667 509.467 478.667C516 478.667 523.2 475.6 528.533 470.667L534 465.467L534.4 559.6C534.533 611.467 534.4 654 534.133 654.4Z" fill="#181066"/>
<path d="M136.933 91.6C136.4 92 136 97.2 136 102.933V113.333H341.333H546.8L546.4 102.267L546 91.3333L341.867 90.9333C229.6 90.8 137.333 91.0666 136.933 91.6Z" fill="#181066"/>
<path d="M205.333 159.333V170.667H341.333H477.333V159.333V148H341.333H205.333V159.333Z" fill="#181066"/>
<path d="M80 387.333V398.667H193.333H306.667V387.333V376H193.333H80V387.333Z" fill="#181066"/>
<path d="M125.333 443.333V454.667H193.333H261.333V443.333V432H193.333H125.333V443.333Z" fill="#181066"/>
<path d="M461.733 274.667C446.667 277.733 429.333 287.733 418.533 299.867C410.933 308.267 402.267 325.2 400.133 335.733C394.667 362.267 402.8 389.6 421.867 408.667C438.533 425.333 458.267 432.933 482 431.6C498.667 430.667 509.2 427.2 522.533 418.133C551.733 398.267 564.133 361.733 553.333 327.6C547.867 310 532.267 291.733 514.8 282.133C501.067 274.667 478.133 271.467 461.733 274.667ZM492 298C520.267 305.333 538.4 333.2 533.6 361.733C525.067 411.467 461.2 426.4 432 385.6C401.467 342.933 441.2 284.8 492 298Z" fill="#181066"/>
<path d="M489.333 512V524H500.667H512V512V500H500.667H489.333V512Z" fill="#181066"/>
<path d="M489.333 558V569.333H500.667H512V558V546.667H500.667H489.333V558Z" fill="#181066"/>
<path d="M489.333 603.333V614.667H500.667H512V603.333V592H500.667H489.333V603.333Z" fill="#181066"/>
</g>
<defs>
<clipPath id="clip0_52_163">
<rect width="682.667" height="682.667" fill="white"/>
</clipPath>
</defs>
</svg>
