<svg width="683" height="683" viewBox="0 0 683 683" fill="none" xmlns="http://www.w3.org/2000/svg">
<g clip-path="url(#clip0_52_157)">
<path d="M323.333 100.133C283.6 106 251.867 133.2 239.733 172C235.333 186.4 235.333 213.467 239.733 228C253.333 271.6 291.867 300 337.6 300.133C355.2 300.133 366 297.733 382 290C403.333 279.733 417.733 265.333 428.667 243.733C436.8 227.6 439.067 215.867 438.4 195.6C437.867 182.533 437.067 177.2 434.133 168.667C428.933 153.467 421.067 140.8 409.467 129.2C393.067 112.8 373.733 103.333 350.267 100.133C338.533 98.5333 334.8 98.5333 323.333 100.133ZM362.667 125.333C386.667 133.467 405.733 152.533 413.467 176.267C417.6 188.933 418 210.133 414.133 221.333C404.4 250.133 384.667 268.8 356.267 276.133C330.533 282.667 303.333 275.6 283.2 256.8C272.667 247.067 266.667 237.733 261.733 223.733C257.2 210.8 256.933 190.533 261.2 177.333C269.6 150.933 294.533 128.133 320.667 122.8C331.467 120.667 352.667 121.867 362.667 125.333Z" fill="#181066"/>
<path d="M530.667 170C503.733 176.133 480.267 197.6 471.867 224C468.533 234.133 467.867 255.733 470.533 265.333C474.133 278.4 481.333 290.667 491.067 300.667C502 311.6 509.333 316.267 522.8 320.8C542.933 327.6 563.2 326 583.467 316.133C636.533 289.867 641.467 215.733 592.4 182.133C574.8 170.133 550.8 165.467 530.667 170ZM564.133 192.8C574.267 195.867 581.2 200.267 589.2 208.667C615.733 236.667 606.667 281.067 571.067 297.6C547.867 308.533 517.867 301.067 502.4 280.667C494 269.733 491.467 261.467 491.333 246C491.333 233.733 491.733 232 495.6 223.6C502.533 208.933 515.733 197.467 531.333 192.533C538.933 190.133 555.6 190.267 564.133 192.8Z" fill="#181066"/>
<path d="M118.8 175.467C98.8 179.733 80.6667 192 69.4667 208.667C48.4 240.133 52.6667 280.933 79.6 307.467C93.4667 321.2 116.133 330.667 135.333 330.667C168.533 330.667 200.533 306.933 210.8 274.667C215.067 261.6 214.8 241.333 210.267 228.267C205.467 214.533 199.467 205.067 189.067 195.333C170.133 177.333 144 170 118.8 175.467ZM158.667 200.933C174.667 208.533 184.533 219.867 189.6 236.533C197.6 262.667 184.533 291.067 159.067 303.067C141.867 311.067 118.8 309.333 103.467 298.667C95.3333 293.2 86.8 283.467 83.3333 275.6C69.4667 245.2 84.6667 210 116.8 198.667C123.067 196.533 127.2 196 137.333 196.4C148.267 196.667 151.2 197.333 158.667 200.933Z" fill="#181066"/>
<path d="M325.333 314.267C284.533 318.267 245.467 335.2 216.933 361.333L207.867 369.733L194.933 363.6C179.2 356.133 168.4 352.8 152.667 350.667C90.1333 341.867 27.6 380.533 7.06667 440.667C1.6 456.667 0 470.133 0 498.667C0 524.933 0 525.067 3.73333 532.133C6.4 537.333 9.2 540.4 14 543.333L20.4 547.333L88 547.733L155.733 548.133L156.533 553.467C157.733 561.2 161.6 568.133 168 573.867C179.333 584.133 165.067 583.333 341.333 583.333C517.6 583.333 503.333 584.133 514.667 573.867C522.267 567.067 525.6 559.867 526.4 549.067L527.067 540.133L593.867 539.733C641.333 539.467 661.733 538.8 664.133 537.733C670 535.2 677.6 527.733 680.133 522C682.267 517.467 682.667 512.933 682.667 490.533C682.667 462.133 681.067 448.667 675.6 432.667C661.733 392 629.467 360.533 588.667 347.6C551.733 336 508.667 341.2 476.8 360.933L470.267 365.067L462 358C424.267 326 372.933 309.467 325.333 314.267ZM368.8 338C435.467 349.467 487.733 399.733 501.467 465.6C503.733 476.8 504.4 485.333 504.8 512.4C505.467 548.267 504.8 554.133 499.067 558.533C495.6 561.333 494.933 561.333 341.333 561.333C188.667 561.333 186.933 561.333 183.6 558.667C177.867 554.133 177.333 549.867 177.867 513.333C178.267 484.8 178.8 477.067 181.2 465.6C194.933 400.267 246.8 349.867 312.667 338.133C327.067 335.6 354.267 335.467 368.8 338ZM575.867 366.8C615.6 376.933 647.067 408.533 657.333 448.533C659.6 457.467 660 463.333 660 486.667C660 506.267 659.6 514.533 658.4 515.733C657.2 516.933 640.667 517.333 591.867 517.333H527.067L526.267 494.267C525.067 460.933 520 440.533 505.867 413.2C502.4 406.4 496.4 396.533 492.533 391.2L485.467 381.467L489.867 378.667C513.333 364.267 547.333 359.6 575.867 366.8ZM162.933 375.2C174.267 378 192 385.6 192 387.467C192 387.867 189.467 391.733 186.533 396.267C178.667 407.733 167.333 432 163.333 446C158.133 463.867 156 480.933 156 504.267V525.333H90.8C35.2 525.333 25.4667 525.067 24 523.333C22.8 521.867 22.5333 513.6 22.9333 491.067C23.4667 463.867 23.8667 459.6 26.5333 451.333C39.6 411.6 71.0667 382.8 111.333 374C125.067 370.933 148.4 371.467 162.933 375.2Z" fill="#181066"/>
</g>
<defs>
<clipPath id="clip0_52_157">
<rect width="682.667" height="682.667" fill="white"/>
</clipPath>
</defs>
</svg>
