<svg width="24" height="24" viewBox="0 0 24 24" fill="none" xmlns="http://www.w3.org/2000/svg">
<path fill-rule="evenodd" clip-rule="evenodd" d="M4.5 8.85506C3.05426 8.42479 2 7.08551 2 5.5C2 3.567 3.567 2 5.5 2C7.08551 2 8.42479 3.05426 8.85506 4.5H15.1449C15.5752 3.05426 16.9145 2 18.5 2C20.433 2 22 3.567 22 5.5C22 7.08551 20.9457 8.42479 19.5 8.85506V15.1449C20.9457 15.5752 22 16.9145 22 18.5C22 20.433 20.433 22 18.5 22C16.9145 22 15.5752 20.9457 15.1449 19.5H8.85506C8.42479 20.9457 7.08551 22 5.5 22C3.567 22 2 20.433 2 18.5C2 16.9145 3.05426 15.5752 4.5 15.1449L4.5 8.85506ZM4 5.5C4 4.67157 4.67157 4 5.5 4C6.32843 4 7 4.67157 7 5.5C7 6.32843 6.32843 7 5.5 7C4.67157 7 4 6.32843 4 5.5ZM6.5 15.1449L6.5 8.85506C7.62889 8.51909 8.51909 7.62889 8.85506 6.5H15.1449C15.4809 7.62889 16.3711 8.51909 17.5 8.85506V15.1449C16.3711 15.4809 15.4809 16.3711 15.1449 17.5H8.85506C8.51909 16.3711 7.62889 15.4809 6.5 15.1449ZM17 18.5C17 17.6716 17.6716 17 18.5 17C19.3284 17 20 17.6716 20 18.5C20 19.3284 19.3284 20 18.5 20C17.6716 20 17 19.3284 17 18.5ZM20 5.5C20 6.32843 19.3284 7 18.5 7C17.6716 7 17 6.32843 17 5.5C17 4.67157 17.6716 4 18.5 4C19.3284 4 20 4.67157 20 5.5ZM4 18.5C4 17.6716 4.67157 17 5.5 17C6.32843 17 7 17.6716 7 18.5C7 19.3284 6.32843 20 5.5 20C4.67157 20 4 19.3284 4 18.5Z" fill="#FD9131"/>
</svg>
