<svg width="24" height="28" viewBox="0 0 24 28" fill="none" xmlns="http://www.w3.org/2000/svg">
<path fill-rule="evenodd" clip-rule="evenodd" d="M12 9C10.3431 9 9 10.3431 9 12C9 13.6569 10.3431 15 12 15C13.6569 15 15 13.6569 15 12C15 10.3431 13.6569 9 12 9ZM11 12C11 11.4477 11.4477 11 12 11C12.5523 11 13 11.4477 13 12C13 12.5523 12.5523 13 12 13C11.4477 13 11 12.5523 11 12Z" fill="#FD9131"/>
<path fill-rule="evenodd" clip-rule="evenodd" d="M14.676 2.36237C13.5926 2.06212 12.5984 2.76358 12.3257 3.71815L12.2452 3.99998L11.7538 3.99997L11.6733 3.71829C11.4006 2.76367 10.4063 2.06221 9.3229 2.36255C8.53043 2.58223 7.77768 2.8969 7.07778 3.29334C6.09991 3.84721 5.89238 5.04597 6.37472 5.91418L6.51659 6.16955L6.16912 6.51702L5.91383 6.37519C5.04559 5.89284 3.8468 6.1004 3.29295 7.07831C2.89656 7.7782 2.58193 8.53091 2.36227 9.32334C2.06196 10.4068 2.76343 11.401 3.71803 11.6737L3.99998 11.7543L3.99998 12.2457L3.71803 12.3262C2.76343 12.599 2.06196 13.5932 2.36227 14.6766C2.58192 15.469 2.89655 16.2217 3.29294 16.9216C3.84679 17.8995 5.04558 18.1071 5.91382 17.6247L6.16912 17.4829L6.51659 17.8304L6.37472 18.0858C5.89237 18.954 6.09991 20.1527 7.07777 20.7066C7.77765 21.103 8.53037 21.4177 9.3228 21.6374C10.4062 21.9377 11.4005 21.2363 11.6732 20.2816L11.7537 20L12.2451 20L12.3256 20.2818C12.5984 21.2364 13.5925 21.9378 14.6759 21.6376C15.4685 21.418 16.2213 21.1033 16.9213 20.7069C17.8993 20.153 18.1068 18.9542 17.6245 18.086L17.4827 17.8307L17.8301 17.4833L18.0855 17.6251C18.9537 18.1075 20.1525 17.8999 20.7063 16.9221C21.1028 16.2221 21.4176 15.4692 21.6373 14.6766C21.9376 13.5932 21.2361 12.599 20.2815 12.3262L19.9995 12.2457V11.7543L20.2815 11.6737C21.2361 11.401 21.9376 10.4067 21.6373 9.32332C21.4176 8.53085 21.1029 7.77809 20.7065 7.07817C20.1526 6.10027 18.9539 5.89273 18.0856 6.37508L17.8301 6.51702L17.4827 6.16955L17.6246 5.91407C18.107 5.04583 17.8994 3.84705 16.9215 3.29319C16.2215 2.89672 15.4686 2.58204 14.676 2.36237ZM14.1682 4.54942L14.2349 4.31612C14.8023 4.48085 15.3438 4.70684 15.8519 4.98659L15.7344 5.19826C15.3007 5.97885 15.437 6.95234 16.0685 7.58376L16.4159 7.93123C17.0473 8.56265 18.0208 8.69899 18.8014 8.26533L19.0131 8.14773C19.2928 8.65576 19.5188 9.19721 19.6835 9.76452L19.4501 9.83122C18.5914 10.0765 17.9995 10.8613 17.9995 11.7543V12.2457C17.9995 13.1386 18.5914 13.9234 19.45 14.1687L19.6835 14.2354C19.5188 14.8028 19.2928 15.3444 19.013 15.8525L18.8014 15.7349C18.0208 15.3013 17.0473 15.4376 16.4159 16.069L16.0685 16.4165C15.437 17.0479 15.3007 18.0214 15.7344 18.802L15.8518 19.0134C15.3437 19.2932 14.8022 19.5191 14.2348 19.6838L14.1682 19.4505C13.9228 18.5919 13.1381 18 12.2451 18H11.7537C10.8607 18 10.076 18.5919 9.83066 19.4505L9.76405 19.6837C9.19678 19.5189 8.65537 19.2929 8.14737 19.0132L8.26491 18.8017C8.69857 18.0211 8.56223 17.0476 7.93081 16.4162L7.58334 16.0687C6.95192 15.4373 5.97843 15.3009 5.19784 15.7346L4.98635 15.8521C4.70666 15.3441 4.48072 14.8027 4.316 14.2354L4.54942 14.1687C5.40803 13.9234 5.99998 13.1386 5.99998 12.2457V11.7543C5.99998 10.8613 5.40803 10.0765 4.54942 9.83122L4.316 9.76453C4.48072 9.19726 4.70667 8.65585 4.98636 8.14785L5.19784 8.26534C5.97843 8.699 6.95192 8.56266 7.58334 7.93124L7.93081 7.58377C8.56222 6.95235 8.69857 5.97886 8.26491 5.19827L8.14738 4.98671C8.6554 4.70698 9.19683 4.48101 9.76413 4.31627L9.83075 4.54942C10.0761 5.40802 10.8608 5.99997 11.7538 5.99997H12.2452C13.1382 5.99997 13.9229 5.40802 14.1682 4.54942ZM8.14738 4.98671C8.1193 5.00217 8.09133 5.01779 8.06346 5.03357C8.07671 5.02607 8.09141 5.0136 8.10321 4.99757C8.11435 4.98244 8.11948 4.96893 8.12164 4.96009C8.12394 4.95068 8.12334 4.9452 8.12286 4.94299L8.14738 4.98671ZM4.98636 8.14785L4.94254 8.12351C4.94474 8.12398 4.95032 8.12441 4.95973 8.12211C4.96857 8.11995 4.98209 8.11483 4.99722 8.10368C5.01324 8.09188 5.02572 8.07718 5.03322 8.06393C5.01743 8.0918 5.00181 8.11977 4.98636 8.14785ZM4.316 9.76453C4.30702 9.79547 4.29822 9.82649 4.2896 9.85758C4.2937 9.8428 4.29528 9.82347 4.29228 9.80368C4.28945 9.78499 4.28348 9.77172 4.27873 9.7639C4.27366 9.75555 4.26933 9.75208 4.26742 9.75085L4.316 9.76453ZM4.316 14.2354L4.26747 14.2493C4.26672 14.2495 4.26638 14.2496 4.26639 14.2497C4.26639 14.2497 4.26603 14.2499 4.26639 14.2497C4.26638 14.2496 4.26672 14.2495 4.26747 14.2493C4.26938 14.248 4.27365 14.2444 4.27872 14.236C4.28348 14.2282 4.28945 14.215 4.29228 14.1963C4.29528 14.1765 4.29369 14.1571 4.2896 14.1424C4.29822 14.1735 4.30702 14.2045 4.316 14.2354ZM4.98635 15.8521C5.00181 15.8802 5.01743 15.9081 5.03321 15.936C5.02571 15.9228 5.01324 15.9081 4.99722 15.8963C4.98208 15.8851 4.96857 15.88 4.95973 15.8778C4.95032 15.8755 4.94484 15.8761 4.94263 15.8766C4.94218 15.8767 4.94281 15.8765 4.94263 15.8766L4.98635 15.8521ZM8.14737 19.0132L8.12303 19.057C8.12226 19.0584 8.12271 19.0586 8.12303 19.057C8.12351 19.0548 8.12393 19.0493 8.12164 19.0399C8.11948 19.031 8.11435 19.0175 8.10321 19.0024C8.0914 18.9863 8.07671 18.9739 8.06346 18.9664C8.09133 18.9822 8.1193 18.9978 8.14737 19.0132ZM9.76405 19.6837C9.79499 19.6926 9.82601 19.7014 9.8571 19.7101C9.84233 19.706 9.823 19.7044 9.8032 19.7074C9.7845 19.7102 9.77124 19.7162 9.76341 19.7209C9.75507 19.726 9.75159 19.7303 9.75037 19.7322C9.74953 19.7335 9.74994 19.7338 9.75037 19.7322L9.76405 19.6837ZM14.2348 19.6838L14.2487 19.7324C14.2491 19.7339 14.2495 19.7337 14.2487 19.7324C14.2475 19.7305 14.2438 19.7262 14.2355 19.7211C14.2276 19.7164 14.2144 19.7104 14.1957 19.7076C14.1759 19.7046 14.1565 19.7062 14.1418 19.7102C14.1729 19.7016 14.2039 19.6928 14.2348 19.6838ZM15.8518 19.0134C15.8799 18.998 15.9079 18.9824 15.9357 18.9666C15.9225 18.9741 15.9078 18.9865 15.896 19.0026C15.8848 19.0177 15.8797 19.0312 15.8775 19.0401C15.8753 19.0495 15.8758 19.0549 15.8763 19.0571C15.8766 19.0587 15.8771 19.0585 15.8763 19.0571L15.8518 19.0134ZM19.013 15.8525L19.0568 15.8768C19.0582 15.8776 19.0583 15.8771 19.0568 15.8768C19.0546 15.8763 19.049 15.8759 19.0396 15.8782C19.0308 15.8804 19.0172 15.8855 19.0021 15.8966C18.9861 15.9084 18.9736 15.9231 18.9661 15.9364C18.9819 15.9085 18.9975 15.8805 19.013 15.8525ZM19.6835 14.2354C19.6925 14.2045 19.7013 14.1735 19.7099 14.1424C19.7058 14.1572 19.7042 14.1765 19.7072 14.1963C19.7101 14.215 19.7161 14.2282 19.7208 14.2361C19.7259 14.2444 19.7302 14.2479 19.7321 14.2491C19.7334 14.2499 19.7336 14.2495 19.7321 14.2491L19.6835 14.2354ZM19.6835 9.76452L19.7321 9.75065C19.7302 9.75187 19.7259 9.75554 19.7208 9.76388C19.716 9.7717 19.7101 9.78497 19.7072 9.80366C19.7042 9.82346 19.7058 9.84279 19.7099 9.85756C19.7013 9.82647 19.6925 9.79545 19.6835 9.76452ZM19.0569 8.12339L19.0131 8.14773C18.9977 8.11966 18.982 8.09168 18.9662 8.06382C18.9738 8.07706 18.9862 8.09176 19.0022 8.10356C19.0174 8.11471 19.0309 8.11984 19.0397 8.12199C19.0491 8.12429 19.0547 8.12387 19.0569 8.12339ZM19.0579 8.12293C19.0579 8.12291 19.058 8.12289 19.0579 8.12293ZM15.8519 4.98659L15.8763 4.94278C15.8758 4.94498 15.8754 4.95056 15.8777 4.95997C15.8798 4.96881 15.885 4.98233 15.8961 4.99746C15.9079 5.01348 15.9226 5.02595 15.9359 5.03346C15.908 5.01767 15.88 5.00205 15.8519 4.98659Z" fill="#FD9131"/>
</svg>
