<svg width="60" height="60" viewBox="0 0 60 60" fill="none" xmlns="http://www.w3.org/2000/svg">
<path fill-rule="evenodd" clip-rule="evenodd" d="M46.2502 19.3366L40.3809 42.1179C39.8495 44.1807 37.4515 45.0098 35.7517 43.9582C34.3599 43.0971 31.4653 41.3966 25.786 38.3438C24.6563 37.7365 24.2517 36.1541 25.221 35.0833L28.0494 31.9591L23.4111 34.5007C21.9143 35.3209 20.0635 35.7986 18.1528 35.3997C15.5594 34.8583 13.1246 33.8873 12.3896 33.5818C10.5394 32.8125 10.7915 30.3622 12.404 29.703L43.5433 16.9746C45.0733 16.3492 46.6628 17.7352 46.2502 19.3366ZM13.1607 31.5544C13.0789 31.5878 13.0759 31.7011 13.1574 31.735C13.8562 32.0255 16.1537 32.9392 18.5615 33.4419C19.893 33.7199 21.2572 33.4003 22.45 32.7467L35.9382 25.3557C36.2349 25.1932 36.5318 25.5694 36.3048 25.8202L26.7037 36.4256C26.6601 36.4738 26.6758 36.5514 26.733 36.5821C32.4315 39.6454 35.3646 41.3669 36.804 42.2574C37.4132 42.6343 38.2655 42.3126 38.4442 41.6189L44.3135 18.8376C44.3155 18.8297 44.3076 18.8228 44.3 18.8259L13.1607 31.5544Z" fill="#FD9131"/>
</svg>
