<svg width="60" height="60" viewBox="0 0 60 60" fill="none" xmlns="http://www.w3.org/2000/svg">
<path d="M38.9249 24.9227C38.9624 24.3717 38.5461 23.8946 37.995 23.8572C37.444 23.8198 36.967 24.2361 36.9295 24.7871C36.781 26.9731 35.7857 28.3603 34.8329 29.2151C33.9382 30.0176 32.8111 30.6248 31.5968 30.7106C31.3363 30.7291 31.0665 30.7361 30.8013 30.7358V24.8549C30.8013 24.3026 30.3536 23.8549 29.8013 23.8549H28.168C27.6158 23.8549 27.168 24.3026 27.168 24.8549C27.168 25.4072 27.6158 25.8549 28.168 25.8549H28.8013V34.7409C25.4354 33.5197 23.7369 31.5902 22.8512 29.7917C21.8386 27.7356 21.8331 25.7417 21.8331 24.8549C21.8331 24.3026 21.3854 23.8549 20.8331 23.8549C20.2808 23.8549 19.8331 24.3026 19.8331 24.8549V24.8674C19.833 25.8062 19.833 28.1899 21.057 30.6753C22.3086 33.2168 24.7856 35.7594 29.5351 37.0711C29.836 37.1542 30.1586 37.0919 30.407 36.9028C30.6554 36.7137 30.8013 36.4194 30.8013 36.1071V32.7358C31.1062 32.7361 31.4241 32.7279 31.7379 32.7057C32.2003 32.673 32.7303 32.606 33.2152 32.452C34.013 33.0352 34.8524 33.8906 35.5657 34.7331C35.9766 35.2186 36.3293 35.6803 36.5894 36.0502C36.7196 36.2354 36.8228 36.3922 36.8969 36.5134C36.9575 36.6124 36.9848 36.6655 36.993 36.6815C36.9961 36.6875 36.9964 36.6882 36.9949 36.6841C37.1945 37.1991 37.7738 37.4547 38.2887 37.2551C38.8036 37.0554 39.0593 36.4762 38.8596 35.9612C38.752 35.6835 38.4954 35.2837 38.2254 34.8998C37.9296 34.4791 37.5402 33.9702 37.0922 33.4409C36.5454 32.795 35.8855 32.0879 35.1802 31.4698C35.4907 31.2628 35.8277 31.0095 36.1684 30.7038C37.4303 29.5719 38.7345 27.7253 38.9249 24.9227Z" fill="white"/>
<path fill-rule="evenodd" clip-rule="evenodd" d="M45.4738 45.4738C48 42.9476 48 38.8817 48 30.75V29.25C48 21.1183 48 17.0524 45.4738 14.5262C42.9476 12 38.8817 12 30.75 12H29.25C21.1183 12 17.0524 12 14.5262 14.5262C12 17.0524 12 21.1183 12 29.25V30.75C12 38.8817 12 42.9476 14.5262 45.4738C17.0524 48 21.1183 48 29.25 48H30.75C38.8817 48 42.9476 48 45.4738 45.4738ZM45.9003 39.9741C45.6113 42.1232 45.0739 43.3281 44.201 44.201C43.3281 45.0739 42.1232 45.6113 39.9741 45.9003C37.7732 46.1962 34.8667 46.2 30.75 46.2H29.25C25.1333 46.2 22.2268 46.1962 20.0259 45.9003C17.8768 45.6113 16.6719 45.0739 15.799 44.201C14.9261 43.3281 14.3887 42.1232 14.0997 39.9741C13.8038 37.7732 13.8 34.8667 13.8 30.75V29.25C13.8 25.1333 13.8038 22.2268 14.0997 20.0259C14.3887 17.8768 14.9261 16.6719 15.799 15.799C16.6719 14.9261 17.8768 14.3887 20.0259 14.0997C22.2268 13.8038 25.1333 13.8 29.25 13.8H30.75C34.8667 13.8 37.7732 13.8038 39.9741 14.0997C42.1232 14.3887 43.3281 14.9261 44.201 15.799C45.0739 16.6719 45.6113 17.8768 45.9003 20.0259C46.1962 22.2268 46.2 25.1333 46.2 29.25V30.75C46.2 34.8667 46.1962 37.7732 45.9003 39.9741Z" fill="white"/>
</svg>
